<?xml version="1.0" encoding="UTF-8" standalone="no"?>
<!DOCTYPE svg PUBLIC "-//W3C//DTD SVG 1.1//EN" "http://www.w3.org/Graphics/SVG/1.1/DTD/svg11.dtd">
<svg width="100%" height="100%" viewBox="0 0 16 16" version="1.1" xmlns="http://www.w3.org/2000/svg" xmlns:xlink="http://www.w3.org/1999/xlink" xml:space="preserve" style="fill-rule:evenodd;clip-rule:evenodd;stroke-linejoin:round;stroke-miterlimit:1.41421;">
    <g transform="matrix(0.0261438,0,0,0.0261438,3.38618e-15,1.30719e-05)">
        <path d="M306.768,346.814L306.899,346.814C311.514,346.814 316.075,345.475 319.765,343.037L320.766,342.394C320.984,342.252 321.212,342.123 321.441,341.97L333.099,332.325L611.358,102.701C610.782,101.906 609.801,101.362 608.756,101.362L3.233,101.362C2.482,101.362 1.785,101.634 1.23,102.091L292.355,342.045C296.024,345.083 301.259,346.814 306.768,346.814ZM0,133.899L0,474.269L208.55,305.798L0,133.899ZM403.668,306.941L612,474.356L612,135.031L403.668,306.941ZM337.431,361.585C329.126,368.399 318.263,372.155 306.855,372.155C295.404,372.155 284.551,368.421 276.268,361.639L228.503,322.245L0,506.806L0,507.393C0,509.146 1.502,510.637 3.276,510.637L608.767,510.637C610.508,510.637 611.999,509.146 611.999,507.382L611.999,506.838L383.693,323.4L337.431,361.585Z" style="fill:rgb(13,13,13);fill-rule:nonzero;"/>
    </g>
</svg>
